<svg id="Layer_1" data-name="Layer 1" xmlns="http://www.w3.org/2000/svg" viewBox="0 0 578.44 245.48"><defs><style>.cls-1,.cls-4{fill:#077954;}.cls-1,.cls-2,.cls-5{fill-rule:evenodd;}.cls-2,.cls-6{fill:#fff;}.cls-3,.cls-5{fill:#df2a27;}</style></defs><title>PJ-MODERN-LOGO-RGB-NOTAG</title><path class="cls-1" d="M740.85,187.33C700,163.8,605.83,139.87,566,136.7h0l-30-2.41h0c-32-2.6-49.66-4-63.17-4s-93.12,6.45-93.12,6.45h0c-39.85,3.17-134,27.1-174.87,50.63-19.15,11-21.23,18.84-21.23,44.84h0v66.28h0c0,5.39.65,13.23,6.27,19.18,6.48,6.85,14.87,6.85,24.59,6.85H731.23c9.71,0,18.1,0,24.58-6.85,5.62-5.95,6.27-13.79,6.27-19.18h0V232.17h0c0-26-2.08-33.8-21.23-44.84Z" transform="translate(-183.64 -79)"/><path class="cls-2" d="M755.71,298.45c0,4.19-.45,10.24-4.4,14.42-4.62,4.88-11.1,4.88-20.08,4.87H214.49c-9,0-15.46,0-20.08-4.87-3.95-4.18-4.4-10.23-4.4-14.42h0V232.17h0c0-25.12,2.17-29.85,17.91-38.92,40.16-23.15,133-46.71,172.29-49.83h0l30-2.41h0c31.9-3.65,49.61-4.84,62.87-4.84s33.35.84,62.49,4.84h0l30,2.41h0c39.31,3.12,132.14,26.68,172.29,49.83,15.74,9.07,17.91,13.8,17.91,38.92h0v66.28Z" transform="translate(-183.64 -79)"/><path class="cls-3" d="M598,113.84l-3.74-1.18c-1-.28-25.12-6.82-33.14-7L562.94,96a2.65,2.65,0,0,0-.66-2.13C558.88,89.24,523.37,79,472.44,79c-50.3,0-87.09,9.48-90.56,13.65a2.32,2.32,0,0,0-.6,2l2.43,11c-8,.23-32.09,6.76-33.14,7l-3.73,1.17,2.26,2.59,14.25,15.13-3.09,25.65-.38,3.49,3.26-.81c3-.74,6.31-1.73,9.83-2.78,8.15-2.42,17.39-5.16,23.86-5.16.05,0,4.85-.1,9.58-.51,1.66-.15,2.56-.63,2.76-1.47.54-2.22-5-6-6.44-6.89,2.5-2.19,40.93-6.37,69.71-6.23h1.25c28.72,0,66.29,4.11,68.49,6.21-1.42.91-7,4.68-6.47,6.91.2.84,1.1,1.32,2.76,1.47,4.73.41,9.53.51,9.59.51,6.46,0,15.7,2.74,23.85,5.16,3.52,1,6.85,2,9.82,2.78l3.27.81-3.47-29.14,14.26-15.14Z" transform="translate(-183.64 -79)"/><path class="cls-4" d="M547.82,140.62l-.76-.59c-3-2.9-41.32-7.54-73.86-7.09h0c-32.6-.46-73.29,4.89-75.45,8l-.35.37-.25-1c-.08-.42-8.93-41.42-9.43-43.58a1.77,1.77,0,0,1,.47-1c3.17-4.09,40.36-12.08,85-12.08A334,334,0,0,1,531.11,89c14.07,2.55,24.15,5.25,25.88,7.48a1.77,1.77,0,0,1,.12,1.25c-.5,2.15-8.33,38.43-8.41,38.84Z" transform="translate(-183.64 -79)"/><path class="cls-4" d="M392.89,145.52l-8.24-35.77h-.18c-6.34,0-29.65,6.25-29.65,6.25L368.08,130l-2.85,24.72s8-2.08,11.69-3.09c4.2-1.17,8.16-2.27,11.57-3a43.71,43.71,0,0,1,6.44-.85l1.71-.12-.77-.43Z" transform="translate(-183.64 -79)"/><path class="cls-4" d="M551.87,146.2l8.24-35.78h.18c6.34,0,29.65,6.26,29.65,6.26l-13.26,13.94,2.85,24.72s-8-2.08-11.69-3.09c-4.2-1.16-8.16-2.26-11.57-3a41.12,41.12,0,0,0-6.45-.85l-1.7-.13.77-.43Z" transform="translate(-183.64 -79)"/><path class="cls-3" d="M230.33,264.4l-1.42.17q.1,14.61.2,29.23l-20.2.09v-77.3q10.51-3.93,21.12-7.54c16.79-5.87,27.26.07,27.54,21.66C257.85,252.08,247.42,262.58,230.33,264.4Zm1.07-36.88-2.74.72q.06,10.09.14,20.17l2.75-.52c5-.93,7.15-6.41,7.09-12.49S236.4,226.18,231.4,227.52Z" transform="translate(-183.64 -79)"/><path class="cls-3" d="M335.8,254.49l-1.83.13v38.86l-20.75,0-.16-108.08s14.51-3,21.79-4.32c17.3-3.25,30.53,6.09,30.85,33C366,240.69,352.9,252.71,335.8,254.49Zm.64-49.89c-.92.13-2.43.43-2.43.43s-.09,18,0,26.92c9.29-.79,11.36-5,11.36-15.83C345.41,207.61,341.53,203.87,336.44,204.6Z" transform="translate(-183.64 -79)"/><path class="cls-3" d="M690.11,218.82q-4.11-.76-8.24-1.49c.67-6.67,1.54-13.56,2.21-20.12,3.59,1,7.24,2.2,10.8,3.27C693.39,206.42,691.62,212.58,690.11,218.82Z" transform="translate(-183.64 -79)"/><path class="cls-5" d="M678.47,283.83q0-6.15,0-12.14v-76l-.53-.14h0c-6.12-1.59-10-2.61-16.41-4.24l-.21-.06h0c0,1.34,0,2.65,0,3.94v47.58c-5.16-19.39-10.88-35.22-16.77-55.19-.33,0-.67-.08-1-.13l-18.4-3.94v64.06c-.23,14.89-.46,29.93-.69,45.83h19.71V239.13c5,18.63,11.55,36.77,16.37,54.33h4.17l13.67,0v0h.09Z" transform="translate(-183.64 -79)"/><path class="cls-3" d="M618.27,182.35l-.46-.07c-7-1.21-20.45-3.25-20.45-3.25v42.76l-15.29,0v-40.7c0-1.37,0-2.68,0-3.89l-2.61-.35L563,174.59l-2.59-.36h0v1.23c-.19,20.75-.1,40,0,58.74v59.1h21.64l0-43.91h15.32l0,43.36v.55h20.89Z" transform="translate(-183.64 -79)"/><path class="cls-3" d="M717.76,238.64c-3.28-3.5-5.22-6.43-5.22-8.88,0-2.7,1-5.06,4.08-4.9,3.62.2,4.21,4.73,4.38,7.72,0,.67.09,1.36.13,2h18.21c-.56-16-6.41-25.84-20.46-28.66-13.37-2.68-26.2,3.35-26.41,20-.13,10.26,4.41,19.44,12,26.9q5.16,5.14,10.34,10c3.3,3.08,5,5.24,4.94,7.5,0,2.76-1.49,5-4.55,5-3.69,0-5.32-3.74-5.48-6.87-.06-1.26-.11-2.68-.12-4.06H691.3c0,.91,0,1.82,0,2.73-.22,16.94,9.28,27.53,23.17,27.53,16.23,0,25.25-10.25,25.22-24,0-8.13-4.68-14.4-11.81-21.63Q722.8,244,717.76,238.64Z" transform="translate(-183.64 -79)"/><path class="cls-3" d="M291,190.27q-10.81,2.63-21.56,5.59c-5.24,34.17-10.54,66.85-15.93,97.84l20.21-.06c.38-3.92,1.17-11.82,1.17-11.82h11.93s1,7.71,1.47,11.77l20.87,0Q300.08,240,291,190.27Zm-14.34,73.27s2.36-24,3.46-36l.22,0c1.39,11.57,4.51,36,4.51,36Z" transform="translate(-183.64 -79)"/><path class="cls-3" d="M405.72,172.73c-7.6.83-20.45,2.1-28.19,2.92-5.66,40.39-11.24,78.87-16.78,117.77l22.61,0,1.23-14.24,14.94,0s1,9.45,1.53,14.25l23,0C418,252.45,412,212.67,405.72,172.73Zm-18.81,84.72L391.79,214l.39,0L398,257.4Z" transform="translate(-183.64 -79)"/><path class="cls-3" d="M524.52,170.41c-16.37-.57-29.19,12.53-29.25,35.26q-.09,26.33-.17,52.66c-.07,22.55,13.47,36.45,29.55,36.42s28.34-14.54,28.57-36.48c.18-17.13.23-33.34.41-50.47C553.86,185.69,543.12,171.05,524.52,170.41Zm5.32,94.69a5,5,0,0,1-5,5h-.9a5,5,0,0,1-5-5V200a5,5,0,0,1,5-5h.9a5,5,0,0,1,5,5Z" transform="translate(-183.64 -79)"/><path class="cls-3" d="M466.85,170v89.6h0v7.85a3.63,3.63,0,0,1-3,3.57,2.51,2.51,0,0,1-.27,0h-.06l-.25,0h-.28a3.63,3.63,0,0,1-3.62-3.62V255.05c-6.18,0-13.84.11-20,.2,0,3,0,9.94,0,12.91,0,15.57,9.51,26.27,23.73,26.27a28.25,28.25,0,0,0,3.63-.24c15.56-1.13,22-11.45,22-34.79l.15-89.36Z" transform="translate(-183.64 -79)"/><path class="cls-6" d="M420.71,127.38l-3.79-30.66L426,95.6c6.12-.75,10.88,1.86,11.6,7.68s-3.27,9.87-9.39,10.63l-2.39.29,1.53,12.35Zm6.86-18.79a3.83,3.83,0,0,0,3.43-4.54c-.28-2.3-2-3.37-4.37-3.08l-2.38.29.94,7.62Z" transform="translate(-183.64 -79)"/><path class="cls-6" d="M443.88,124.53l-1.81-30.84,6.71-.39,1.8,30.83Z" transform="translate(-183.64 -79)"/><path class="cls-6" d="M457.42,123.66l-.05-4.58,11.12-20.94-11,.13-.07-5.5,18.78-.22.05,4.23L465,118.08l11.82-.14.06,5.5Z" transform="translate(-183.64 -79)"/><path class="cls-6" d="M482.82,123.36l.23-4.58,12.39-20.22L484.49,98l.27-5.49,18.76.94-.21,4.22-12.56,20.57,11.8.59-.27,5.49Z" transform="translate(-183.64 -79)"/><path class="cls-6" d="M521.81,126.74l-.22-3.83-6.21-.8-1.17,3.66-6.66-.85,11.36-29.7,6.71.86,3.15,31.54Zm-.91-21-.1,0L517,117.32l4.47.57Z" transform="translate(-183.64 -79)"/><path class="cls-4" d="M609.87,137.28a9.27,9.27,0,1,1,9.21-9.25A9.09,9.09,0,0,1,609.87,137.28Zm0-17.18a7.93,7.93,0,1,0,7.77,7.93A7.65,7.65,0,0,0,609.87,120.1Zm3.18,12.17c-1.22,0-1.64-.32-1.64-1.35v-1.06c0-.71-.32-1.22-1.09-1.22h-1.57v3.53h-1.61v-8.41h3.34c1.83,0,2.47.9,2.47,2.28v.26c0,1-.35,1.6-1.38,1.79a1.63,1.63,0,0,1,1.44,1.74v1c0,.26.13.36.45.36v1.12Zm-1.7-6.26a.89.89,0,0,0-1-1h-1.6v2.54h1.47a1,1,0,0,0,1.13-1.15Z" transform="translate(-183.64 -79)"/></svg>